<svg width="153" height="46" viewBox="0 0 153 46" fill="none" xmlns="http://www.w3.org/2000/svg">
<path d="M26.6006 39.4395C25.738 39.1953 25.3066 38.7152 25.3066 37.999L25.9902 11.4609H25.6484L13.9541 35.8018C13.2542 37.055 12.2614 38.3978 10.9756 39.8301C9.68978 41.2624 8.20866 42.54 6.53223 43.6631C4.85579 44.7861 3.37467 45.3477 2.08887 45.3477C1.32389 45.3477 0.941406 44.2327 0.941406 42.0029C0.941406 41.0101 1.67383 40.2207 3.13867 39.6348C4.86393 38.9674 6.28809 38.3815 7.41113 37.877C9.62467 36.8841 11.2197 35.5251 12.1963 33.7998C13.5146 30.9515 15.834 26.0443 19.1543 19.0781C22.4909 12.112 24.7207 7.43262 25.8438 5.04004C26.5111 3.81934 27.4876 2.8265 28.7734 2.06152C30.0755 1.28027 31.4346 0.889648 32.8506 0.889648C32.8506 0.905924 32.9482 0.962891 33.1436 1.06055C32.5739 5.38997 32.1426 10.4193 31.8496 16.1484C31.5729 21.8613 31.3857 25.5316 31.2881 27.1592H31.6543C31.9473 26.5244 32.4193 25.5967 33.0703 24.376C35.9023 18.9723 39.3285 12.1934 43.3486 4.03906L43.2998 4.08789C43.7393 3.37174 44.8053 2.59863 46.498 1.76855C48.207 0.922201 49.5254 0.482747 50.4531 0.450195L50.6484 0.547852C48.4186 12.1201 46.9945 19.9733 46.376 24.1074C45.7575 28.2253 45.4482 31.1631 45.4482 32.9209C45.4482 34.6787 45.8307 35.5576 46.5957 35.5576C47.7676 35.5576 50.8193 33.1406 55.751 28.3066V31.0898C49.4033 37.2585 44.9355 40.3428 42.3477 40.3428C40.5085 40.3428 39.5889 38.6419 39.5889 35.2402C39.5889 32.7663 39.833 30.0482 40.3213 27.0859C41.0212 22.8704 41.599 19.4932 42.0547 16.9541C42.5104 14.415 42.8604 12.5514 43.1045 11.3633C43.3649 10.1751 43.4951 9.47526 43.4951 9.26367C43.4951 9.05208 43.3975 8.94629 43.2021 8.94629C43.0068 8.94629 42.8766 9.04395 42.8115 9.23926C32.8018 28.9495 27.3981 39.0163 26.6006 39.4395ZM56.459 39.708C54.5059 39.708 53.3014 38.3327 52.8457 35.582C52.748 34.9147 52.6992 34.223 52.6992 33.5068C52.6992 31.7327 53.1387 29.9424 54.0176 28.1357C54.8965 26.3291 56.0521 24.7178 57.4844 23.3018C58.9329 21.8857 60.6582 20.7301 62.6602 19.835C64.6784 18.9398 66.7373 18.4922 68.8369 18.4922C69.8623 18.4922 71.2295 18.7607 72.9385 19.2979C72.9222 19.4118 72.7594 20.1605 72.4502 21.5439C72.141 22.9111 71.8317 24.3109 71.5225 25.7432C70.6761 29.6657 70.2529 32.099 70.2529 33.043C70.2529 33.987 70.4971 34.459 70.9854 34.459C72.0596 34.459 74.5498 32.3919 78.4561 28.2578V30.9922C75.9821 33.5475 73.6221 35.639 71.376 37.2666C69.1462 38.8942 67.6569 39.708 66.9082 39.708C65.6712 39.708 65.0527 38.6419 65.0527 36.5098C65.0527 35.8099 65.1178 35.0205 65.248 34.1416C64.0762 35.6715 62.709 36.9818 61.1465 38.0723C59.6003 39.1628 58.0378 39.708 56.459 39.708ZM57.8994 32.1396C57.8994 34.5811 58.6969 35.8018 60.292 35.8018C60.9756 35.8018 61.8138 35.4437 62.8066 34.7275C63.8158 34.0114 64.7272 33.222 65.541 32.3594L68.3486 20.3477C66.5908 20.3477 64.89 20.9743 63.2461 22.2275C61.6022 23.4808 60.3001 25.0189 59.3398 26.8418C58.3796 28.6647 57.8994 30.4307 57.8994 32.1396ZM79.2617 21.0557C79.0339 21.0557 78.8385 21.0557 78.6758 21.0557C78.5293 21.0557 78.3828 21.0557 78.2363 21.0557C78.0898 21.0394 77.9759 21.0231 77.8945 21.0068C77.8132 20.9906 77.7155 20.9661 77.6016 20.9336C77.5039 20.901 77.4225 20.8604 77.3574 20.8115C77.2923 20.7627 77.2272 20.7057 77.1621 20.6406C77.0482 20.5104 76.9912 20.3395 76.9912 20.1279C76.9912 19.9001 76.9993 19.7536 77.0156 19.6885C77.0807 19.5257 77.3737 19.4118 77.8945 19.3467L79.9453 19.1514C80.7103 16.6123 81.2474 15.001 81.5566 14.3174C81.8659 13.6175 82.1589 12.9909 82.4355 12.4375C82.7285 11.8841 83.0052 11.4528 83.2656 11.1436C83.5423 10.8343 83.8597 10.5007 84.2178 10.1426C84.5758 9.78451 84.9502 9.51595 85.3408 9.33691C86.2686 8.91374 87.2207 8.70215 88.1973 8.70215L88.2949 8.7998C88.2949 8.86491 88.0833 9.49967 87.6602 10.7041C86.2604 14.708 85.3245 17.5238 84.8525 19.1514L92.2988 18.8096L91.7617 19.6885C91.3548 20.4372 88.9215 20.8115 84.4619 20.8115C84.4456 20.8115 84.1934 21.7148 83.7051 23.5215C82.2402 28.9089 81.5078 32.1722 81.5078 33.3115C81.5078 34.4671 81.638 35.1344 81.8984 35.3135C82.1589 35.4762 82.4274 35.5576 82.7041 35.5576C83.583 35.5576 86.6836 33.0348 92.0059 27.9893V30.748C91.4525 31.2526 90.6875 31.9606 89.7109 32.8721C88.7344 33.7835 87.9613 34.4997 87.3916 35.0205C86.8382 35.5251 86.1383 36.1191 85.292 36.8027C84.4619 37.4863 83.7539 38.0072 83.168 38.3652C81.6706 39.2604 80.3522 39.708 79.2129 39.708C77.276 39.708 76.3076 38.3571 76.3076 35.6553C76.3076 34.1742 76.5355 32.4326 76.9912 30.4307C77.4632 28.4124 77.862 26.7686 78.1875 25.499C78.513 24.2132 78.8711 22.7321 79.2617 21.0557ZM94.0811 39.708C92.2093 39.708 90.8014 39.1221 89.8574 37.9502C88.9134 36.7783 88.4414 35.3298 88.4414 33.6045C88.4414 31.863 88.7588 30.1296 89.3936 28.4043C90.0283 26.6628 90.8747 25.0596 91.9326 23.5947C93.0068 22.1136 94.3415 20.8929 95.9365 19.9326C97.5316 18.9723 99.1999 18.4922 100.941 18.4922C103.253 18.4922 104.75 19.0456 105.434 20.1523C105.678 20.543 105.8 21.0475 105.8 21.666C105.8 22.2682 105.491 22.8053 104.872 23.2773C104.27 23.7331 103.505 23.9609 102.577 23.9609C102.073 23.9609 101.601 23.4401 101.161 22.3984C100.998 22.0241 100.73 21.6742 100.355 21.3486C99.9974 21.0231 99.5742 20.8604 99.0859 20.8604C98.1419 20.8604 97.2549 21.3893 96.4248 22.4473C95.5947 23.5052 94.9437 24.791 94.4717 26.3047C94.016 27.8184 93.7881 29.2995 93.7881 30.748C93.7881 32.1803 94.0485 33.3441 94.5693 34.2393C95.0902 35.1182 95.8796 35.5576 96.9375 35.5576C99.7695 35.5576 103.668 33.1081 108.632 28.209V30.9434C104.237 35.224 100.608 37.9095 97.7432 39C96.4736 39.472 95.2529 39.708 94.0811 39.708ZM120.082 3.4043L113.686 26.5488C114.89 24.319 116.469 22.4229 118.422 20.8604C120.375 19.2816 122.279 18.4922 124.135 18.4922C125.73 18.4922 126.527 19.4443 126.527 21.3486C126.527 22.0322 125.998 23.904 124.94 26.9639C123.899 30.0075 123.378 32.1234 123.378 33.3115C123.378 33.7998 123.533 34.0439 123.842 34.0439C124.053 34.0439 124.989 33.2057 126.649 31.5293C128.326 29.8366 129.49 28.7135 130.141 28.1602V30.8945C125.014 36.7702 121.661 39.708 120.082 39.708C119.04 39.708 118.52 39.0895 118.52 37.8525C118.52 37.6735 118.552 37.3643 118.617 36.9248C118.682 36.4691 118.943 35.4681 119.398 33.9219C120.717 29.5273 121.376 26.3535 121.376 24.4004C121.376 23.4727 120.912 23.0088 119.984 23.0088C118.552 23.0088 117.038 24.0586 115.443 26.1582C113.865 28.2415 112.79 30.3493 112.221 32.4814C111.667 34.5973 111.22 36.1029 110.878 36.998C110.536 37.8932 110.105 38.5605 109.584 39H105.775C106.052 36.9818 107.973 29.3971 111.537 16.2461L113.319 9.60547C114.084 6.72461 114.8 4.90169 115.468 4.13672C115.858 3.68099 116.371 3.42871 117.006 3.37988C117.641 3.33105 118.267 3.30664 118.886 3.30664C119.521 3.30664 119.919 3.33919 120.082 3.4043ZM130.727 39.708C128.773 39.708 127.569 38.3327 127.113 35.582C127.016 34.9147 126.967 34.223 126.967 33.5068C126.967 31.7327 127.406 29.9424 128.285 28.1357C129.164 26.3291 130.32 24.7178 131.752 23.3018C133.201 21.8857 134.926 20.7301 136.928 19.835C138.946 18.9398 141.005 18.4922 143.104 18.4922C144.13 18.4922 145.497 18.7607 147.206 19.2979C147.19 19.4118 147.027 20.1605 146.718 21.5439C146.409 22.9111 146.099 24.3109 145.79 25.7432C144.944 29.6657 144.521 32.099 144.521 33.043C144.521 33.987 144.765 34.459 145.253 34.459C146.327 34.459 148.817 32.3919 152.724 28.2578V30.9922C150.25 33.5475 147.89 35.639 145.644 37.2666C143.414 38.8942 141.924 39.708 141.176 39.708C139.939 39.708 139.32 38.6419 139.32 36.5098C139.32 35.8099 139.385 35.0205 139.516 34.1416C138.344 35.6715 136.977 36.9818 135.414 38.0723C133.868 39.1628 132.305 39.708 130.727 39.708ZM132.167 32.1396C132.167 34.5811 132.965 35.8018 134.56 35.8018C135.243 35.8018 136.081 35.4437 137.074 34.7275C138.083 34.0114 138.995 33.222 139.809 32.3594L142.616 20.3477C140.858 20.3477 139.158 20.9743 137.514 22.2275C135.87 23.4808 134.568 25.0189 133.607 26.8418C132.647 28.6647 132.167 30.4307 132.167 32.1396Z" fill="#1C1C1C"/>
</svg>
